
<svg width="20px" height="18px" viewBox="0 0 20 18" version="1.1" xmlns="http://www.w3.org/2000/svg" xmlns:xlink="http://www.w3.org/1999/xlink">
    <!-- Generator: Sketch 51 (57462) - http://www.bohemiancoding.com/sketch -->
    <desc>Created with Sketch.</desc>
    <defs></defs>
    <g id="Exchanger" stroke="none" stroke-width="1" fill="none" fill-rule="evenodd">
        <g transform="translate(-30.000000, -191.000000)" fill="#9795E3" id="Sidebar">
            <g>
                <g id="Dashboard" transform="translate(30.000000, 191.000000)">
                    <g id="icon">
                        <path d="M0.659701333,3.08493391e-05 C0.289503897,0.00362800799 -0.0078386831,0.313882942 0.000157581513,0.688586968 L0.000157581513,17.3254457 C0.000157581513,17.6977517 0.298684794,17.999913 0.666512966,17.999913 L19.3244637,17.999913 C19.6958458,18.0059082 20,17.7013488 20,17.3254457 C20,16.9495427 19.6958458,16.6449832 19.3244637,16.6509785 L1.33286835,16.6509785 L1.33286835,0.688586968 C1.34086461,0.307887677 1.03552577,-0.00356630931 0.659701333,3.08493391e-05 Z" id="Page-1"></path>
                        <path d="M12.2581417,5.00088651 C11.8999296,5.02038978 11.624138,5.33332854 11.6434463,5.70034454 C11.6613137,6.06736054 11.9676528,6.35015789 12.3255767,6.33065463 L13.8319118,6.33065463 L10.5627582,9.83503687 L8.65786523,8.05521612 C8.43164118,7.84274873 8.05239169,7.83004205 7.81377575,8.02743874 L3.27488558,11.7951151 C2.9774802,12.0007859 2.90773979,12.4786159 3.13309929,12.7646638 C3.35817061,13.0510072 3.8264688,13.0811486 4.08525759,12.8270151 L8.19187251,9.41955821 L10.1575722,11.2549337 C10.4051218,11.4845403 10.8316334,11.4685831 11.0624684,11.2203597 L14.7030906,7.31409202 L14.7030906,8.76856284 C14.6973269,9.13912489 14.9901213,9.44260752 15.3515035,9.44260752 C15.7128856,9.44260752 16.00568,9.13912489 15.9999163,8.76856284 L15.9999163,5.66577057 C15.9999163,5.29875457 15.7094274,5.00088651 15.3515035,5.00088651 L12.3255767,5.00088651 C12.3030984,4.9997045 12.28062,4.9997045 12.2581417,5.00088651 Z" id="Path"></path>
                    </g>
                </g>
            </g>
        </g>
    </g>
</svg>