
<svg width="21px" height="18px" viewBox="0 0 21 18" version="1.1" xmlns="http://www.w3.org/2000/svg" xmlns:xlink="http://www.w3.org/1999/xlink">
    <!-- Generator: Sketch 51 (57462) - http://www.bohemiancoding.com/sketch -->
    <desc>Created with Sketch.</desc>
    <defs></defs>
    <g id="Page-1" stroke="none" stroke-width="1" fill="none" fill-rule="evenodd">
        <g id="数据" fill="#9795E3" fill-rule="nonzero">
            <path d="M20.9971717,5.30114478 L10.3537778,0.0156498316 L0,5.30114478 L10.3537778,10.3332256 L20.9971717,5.30114478 Z M10.3779125,1.07757576 L18.8129832,5.26494276 L10.3779125,9.24716498 L2.17212121,5.26494276 L10.3779125,1.07757576 Z" id="Shape"></path>
            <polygon id="Shape" points="18.8129832 9.19889562 18.8250505 9.19889562 10.3779125 13.1931852 2.17212121 9.19889562 2.18418855 9.19889562 0.0603367003 9.19889562 0 9.23509764 10.3537778 14.2551111 20.9971717 9.23509764 20.936835 9.19889562"></polygon>
            <polygon id="Shape" points="18.8129832 12.7708283 18.8250505 12.7708283 10.3779125 16.7651178 2.17212121 12.7708283 2.18418855 12.7708283 0.0603367003 12.7708283 0 12.8070303 10.3537778 17.8270438 20.9971717 12.8070303 20.936835 12.7708283"></polygon>
        </g>
    </g>
</svg>