
<svg width="22px" height="15px" viewBox="0 0 22 15" version="1.1" xmlns="http://www.w3.org/2000/svg" xmlns:xlink="http://www.w3.org/1999/xlink">
    <!-- Generator: Sketch 51 (57462) - http://www.bohemiancoding.com/sketch -->
    <desc>Created with Sketch.</desc>
    <defs></defs>
    <g id="Page-1" stroke="none" stroke-width="1" fill="none" fill-rule="evenodd">
        <g id="48.Dashboard" fill="#9795E3" fill-rule="nonzero">
            <path d="M21.9476191,12.0406131 C21.9476191,12.046375 21.9507619,12.0505655 21.9507619,12.0558036 C21.9507619,12.0584226 21.9491905,12.0610417 21.9491905,12.0641845 C21.9497143,12.0668036 21.9507619,12.0694226 21.9507619,12.0725655 C21.9507619,12.3617083 21.7166191,12.596375 21.4269524,12.596375 C21.4348095,12.5958512 16.7619048,12.5796131 16.7619048,12.5796131 C16.4722381,12.5796131 16.2380953,12.3449464 16.2380953,12.0558036 C16.2380953,11.7661369 16.4722381,11.5319941 16.7619048,11.5319941 L20.9240953,11.5319941 C20.9340476,11.3570417 20.9523809,11.1852321 20.9523809,11.0081845 C20.9523809,5.51185117 16.4963333,1.05580357 11,1.05580357 C5.50366668,1.05580357 1.04761906,5.5118512 1.04761906,11.0081845 C1.04761906,11.1852321 1.0659524,11.3570417 1.07538097,11.531994 L5.23809523,11.5319941 C5.52776189,11.5319941 5.76190475,11.7661369 5.76190475,12.0558036 C5.76190475,12.3449464 5.52776189,12.5796131 5.23809523,12.5796131 C5.23809523,12.5796131 0.565714286,12.5958512 0.573047603,12.5958512 C0.283380944,12.5958512 0.0492380871,12.3611845 0.0492380871,12.0720417 C0.0492380871,12.0688988 0.0502857143,12.0662797 0.0508095156,12.0636607 C0.0508095156,12.0605179 0.0492380871,12.0578988 0.0492380871,12.0552798 C0.0492380871,12.0495179 0.0523809442,12.0453274 0.0523809442,12.0406131 C0.0204285714,11.7001369 0,11.3565179 0,11.0081845 C0,4.93251786 4.92485714,0.00818451563 11,0.00818451563 C17.0751429,0.00818451563 22,4.93251786 22,11.0081845 C22,11.3565179 21.9795714,11.7001369 21.9476191,12.0406131 Z M7.60728571,5.83713691 C7.81314286,5.72399406 8.06038094,5.76170834 8.23009523,5.90680357 L8.20390475,5.86332737 C12.7998095,9.22618452 13.7442381,10.772994 13.7615238,10.8018036 C14.5121429,12.0364226 14.0658571,13.6151845 12.7668095,14.3275655 C11.4677619,15.0399465 9.80571429,14.6172321 9.05561903,13.3826131 C9.03728569,13.3548512 8.10019046,11.8038512 7.33176189,6.34156548 L7.35847617,6.38451786 C7.31185714,6.1728988 7.40195237,5.94975594 7.60728571,5.83713691 Z M9.99742857,12.8671845 C10.2881429,13.344375 10.8297619,13.641375 11.4111905,13.641375 C11.6950953,13.641375 11.976381,13.5696131 12.2241429,13.4334226 C12.6012857,13.2265179 12.8710476,12.893375 12.9836667,12.4937083 C13.0968095,12.0935179 13.0386667,11.6765655 12.8249524,11.3245655 C12.8160476,11.3114703 12.0015238,10.074756 8.602,7.47561311 C9.273,11.5691845 9.99166666,12.8567083 9.99742857,12.8671845 Z" id="Shape"></path>
        </g>
    </g>
</svg>